<svg width="575" height="878" viewBox="0 0 575 878" fill="none" xmlns="http://www.w3.org/2000/svg">
<path d="M311.77 365.704L318.512 418.289L326.602 438.514L338.737 442.559L350.872 461.436L354.917 469.526L353.569 484.358L340.085 489.751L323.905 487.055H309.073L300.983 492.448L295.59 493.796" stroke="white" stroke-width="5" stroke-miterlimit="10"/>
<path d="M303.68 3L389.974 19.1801L439.863 29.9668L466.829 86.5972L431.773 58.282L470.874 109.519L496.493 140.531L501.886 166.149L527.505 190.419L549.078 225.476L554.472 248.398L563.91 275.365V291.545H543.685L563.91 333.344L543.685 399.412L528.853 442.559L514.021 458.739L523.46 488.403L540.988 512.673L546.382 540.988L550.427 578.742L563.91 603.012L572 651.552L553.123 708.182L526.156 739.194L497.841 775.6L473.571 848.41L414.244 859.197H365.704L325.254 864.59H295.59L256.488 868.635L198.509 875.377L144.576 845.713L85.2488 783.69L74.4621 755.374L56.9336 732.453V704.137L51.5403 663.687L31.3152 648.855L43.4502 611.102L31.3152 593.573V570.652V549.078L51.5403 522.111L62.327 480.313L73.1137 461.436L55.5853 438.514L51.5403 416.941L43.4502 429.076L47.4953 400.761L38.0569 384.581L35.3602 377.839L23.2251 333.344L17.8318 358.962L25.9218 377.839L3 340.085V302.332L13.7867 282.107L39.4052 255.14L48.8436 234.915L60.9787 211.993L81.2038 193.116L74.4621 175.588L66.372 189.071L69.0687 160.756L96.0355 135.137L117.609 93.3389L127.047 65.0237L133.789 31.3152L154.014 29.9668L189.071 12.4384L232.218 13.7867L271.32 31.3152L303.68 3Z" stroke="white" stroke-width="5" stroke-miterlimit="10"/>
<path d="M399.412 345.479L400.761 352.22L398.064 361.659L393.776 365.704H368.131L364.355 354.917L366.836 344.103L385.929 340.085L399.412 344.13V345.479Z" stroke="white" stroke-width="5" stroke-miterlimit="10"/>
<path d="M206.6 345.479L205.251 352.22L207.948 361.659L212.236 365.704H237.881L241.656 354.917L239.175 344.103L220.083 340.085L206.6 344.13V345.479Z" stroke="white" stroke-width="5" stroke-miterlimit="10"/>
<path d="M303.68 120.306L334.692 128.396L412.896 166.149L450.649 216.038L474.919 295.59V372.445L489.751 410.199V497.841L441.211 532.898L420.986 570.652L391.322 531.55L303.68 497.841" stroke="white" stroke-width="5" stroke-miterlimit="10"/>
<path d="M303.68 120.306L272.668 128.396L194.464 166.149L156.711 216.038L132.441 295.59V372.445L117.609 410.199V497.841L166.149 532.898L186.374 570.652L216.038 531.55L303.68 497.841" stroke="white" stroke-width="5" stroke-miterlimit="10"/>
<path d="M369.749 578.742L391.322 588.18L369.749 620.54V654.249L323.905 663.687L311.77 638.069L360.31 578.742H369.749Z" stroke="white" stroke-width="5" stroke-miterlimit="10"/>
<path d="M303.68 603.012L330.647 594.922L369.749 570.652L336.04 563.91L303.68 570.652" stroke="white" stroke-width="5" stroke-miterlimit="10"/>
<path d="M303.68 527.505L352.22 542.337L360.31 549.078H303.68" stroke="white" stroke-width="5" stroke-miterlimit="10"/>
<path d="M342.782 365.704L360.31 345.479L385.929 340.085L407.502 345.479L425.031 360.31L396.716 365.704H369.749H342.782Z" stroke="white" stroke-width="5" stroke-miterlimit="10"/>
<path d="M331.995 302.332L350.872 287.5H389.974L425.031 295.59L446.604 318.512L396.716 311.77H360.31L331.995 302.332Z" stroke="white" stroke-width="5" stroke-miterlimit="10"/>
<path d="M237.611 578.742L216.038 588.18L237.611 620.54V654.249L283.455 663.687L295.59 638.069L247.05 578.742H237.611Z" stroke="white" stroke-width="5" stroke-miterlimit="10"/>
<path d="M303.68 603.012L276.713 594.922L237.611 570.652L271.32 563.91L303.68 570.652" stroke="white" stroke-width="5" stroke-miterlimit="10"/>
<path d="M303.68 527.505L255.14 542.337L247.05 549.078H303.68" stroke="white" stroke-width="5" stroke-miterlimit="10"/>
<path d="M264.578 365.704L247.05 345.479L221.431 340.085L199.858 345.479L182.329 360.31L210.645 365.704H237.611H264.578Z" stroke="white" stroke-width="5" stroke-miterlimit="10"/>
<path d="M275.365 302.332L256.488 287.5H217.386L182.329 295.59L160.756 318.512L210.645 311.77H247.05L275.365 302.332Z" stroke="white" stroke-width="5" stroke-miterlimit="10"/>
</svg>
